<svg xmlns="http://www.w3.org/2000/svg" viewBox="0 0 480 360" width="480" height="360" xmlns:c2pa="http://c2pa.org/manifest"><metadata><c2pa:manifest>AAAWgmp1bWIAAAAeanVtZGMycGEAEQAQgAAAqgA4m3EDYzJwYQAAABZcanVtYgAAAEdqdW1kYzJtYQARABCAAACqADibcQN1cm46YzJwYTphYjhkYTJmMy1kMTMwLTQ0ZTctYWY3Ni1mYWJjY2UwMmY5OWIAAAADl2p1bWIAAAApanVtZGMyYXMAEQAQgAAAqgA4m3EDYzJwYS5hc3NlcnRpb25zAAAAALxqdW1iAAAARGp1bWRjYm9yABEAEIAAAKoAOJtxE2MycGEuaW5ncmVkaWVudC52MwAAAAAYYzJzaLbcneT0343Mq2HBGbYKAy8AAABwY2JvcqNpZGM6Zm9ybWF0bWltYWdlL3N2Zyt4bWxqaW5zdGFuY2VJRHgseG1wOmlpZDo5YjE2ZGMzNy0xNjZhLTQ5YzctOWVjMS1mYWJiMDVkMjc5NDJscmVsYXRpb25zaGlwaHBhcmVudE9mAAAB4mp1bWIAAABBanVtZGNib3IAEQAQgAAAqgA4m3ETYzJwYS5hY3Rpb25zLnYyAAAAABhjMnNozYAj06yZs0Xgz1d5cdeyiwAAAZljYm9yomdhY3Rpb25zgqJmYWN0aW9ua2MycGEub3BlbmVkanBhcmFtZXRlcnOha2luZ3JlZGllbnRzgaJjdXJseC1zZWxmI2p1bWJmPWMycGEuYXNzZXJ0aW9ucy9jMnBhLmluZ3JlZGllbnQudjNkaGFzaFgglbvrT+hZXT0yW/Uwi9HCx+VRedHSPbocEZ3aK+h8qwCkZmFjdGlvbngdY29tLmFudGhyb3BpYy5jbGF1ZGUucHJvdmlkZWRqcGFyYW1ldGVyc6F4H2NvbS5hbnRocm9waWMub3JpZ2luLWNvbmZpZGVuY2VndW5rbm93bmtkZXNjcmlwdGlvbnhmQ2xhdWRlIHByb3ZpZGVkIHRoaXMgZmlsZSBhdCB0aGUgcmVxdWVzdCBvZiBhIHVzZXIgYW5kIG1heSBoYXZlIGNyZWF0ZWQgb3IgbW9kaWZpZWQgdGhlIGZpbGUgY29udGVudHMubXNvZnR3YXJlQWdlbnShZG5hbWVmQ2xhdWRlcmFsbEFjdGlvbnNJbmNsdWRlZPUAAADIanVtYgAAAEBqdW1kY2JvcgARABCAAACqADibcRNjMnBhLmhhc2guZGF0YQAAAAAYYzJzaJVq+4iPbvLk9O7ywUd2bAoAAACAY2JvcqVjYWxnZnNoYTI1NmNwYWRNAAAAAAAAAAAAAAAAAGRoYXNoWCAIH+SU+AdB04n0JDsPDH0zdw7nK1kyKaZ14/CL/9aYJ2RuYW1lbmp1bWJmIG1hbmlmZXN0amV4Y2x1c2lvbnOBomVzdGFydBiWZmxlbmd0aBkeBAAAAj5qdW1iAAAAJ2p1bWRjMmNsABEAEIAAAKoAOJtxA2MycGEuY2xhaW0udjIAAAACD2Nib3KlY2FsZ2ZzaGEyNTZpc2lnbmF0dXJleE1zZWxmI2p1bWJmPS9jMnBhL3VybjpjMnBhOmFiOGRhMmYzLWQxMzAtNDRlNy1hZjc2LWZhYmNjZTAyZjk5Yi9jMnBhLnNpZ25hdHVyZWppbnN0YW5jZUlEeCx4bXA6aWlkOjIyNWI3N2VmLWU0YTItNDVhNy05Y2VjLTFhZWMwMmMxN2JiYnJjcmVhdGVkX2Fzc2VydGlvbnODomN1cmx4LXNlbGYjanVtYmY9YzJwYS5hc3NlcnRpb25zL2MycGEuaW5ncmVkaWVudC52M2RoYXNoWCCVu+tP6FldPTJb9TCL0cLH5VF50dI9uhwRndor6HyrAKJjdXJseCpzZWxmI2p1bWJmPWMycGEuYXNzZXJ0aW9ucy9jMnBhLmFjdGlvbnMudjJkaGFzaFggSytbNpSRujZCG9ivS5asKLzgwXMzW1mcYNknO8KIyOKiY3VybHgpc2VsZiNqdW1iZj1jMnBhLmFzc2VydGlvbnMvYzJwYS5oYXNoLmRhdGFkaGFzaFggbZ92DUQk8yZYhwlOHypLMZirLwjfBO1t4qLp/KMekIN0Y2xhaW1fZ2VuZXJhdG9yX2luZm+jZG5hbWVvQW50aHJvcGljIEZpbGVzZ3ZlcnNpb25lMS4wLjBrc3BlY1ZlcnNpb25lMi40LjAAABA4anVtYgAAAChqdW1kYzJjcwARABCAAACqADibcQNjMnBhLnNpZ25hdHVyZQAAABAIY2JvctKEWQISogEmGCFZAgowggIGMIIBjaADAgECAhRA5aAK7sI50L64g/oGQgU9Z1UTADAKBggqhkjOPQQDAzBJMRcwFQYDVQQKEw5BbnRocm9waWMsIFBCQzEuMCwGA1UEAxMlQW50aHJvcGljIENvbnRlbnQgQ3JlZGVudGlhbHMgUm9vdCBDQTAeFw0yNjA4MDcxODQzNTZaFw0yODA4MDYxOTQzNTZaMEQxFzAVBgNVBAoTDkFudGhyb3BpYywgUEJDMSkwJwYDVQQDEyBBbnRocm9waWMgQ2xhdWRlIENvbnRlbnQgU2lnbmluZzBZMBMGByqGSM49AgEGCCqGSM49AwEHA0IABJh6CmvLUBgFFNU0vUKlOVtE6djd17L5SuwX0LemFisBM3dkd/3cyjxFA3Qo5S46fX0/ihY0VZ7mfb9KF703t5OjWDBWMA4GA1UdDwEB/wQEAwIHgDAVBgNVHSUEDjAMBgorBgEEAYPoXgIBMAwGA1UdEwEB/wQCMAAwHwYDVR0jBBgwFoAUzlHiBIFOZFsj+OPEz5o+nMHXXMIwCgYIKoZIzj0EAwMDZwAwZAIwMXMdFJ4BetLLVY7ORuE9noqbbAZOZn/aArXyTwFAZfKrPzxF2vPoJNf1+UCdg1XGAjBwX1zd9WGqYkqmL5SFqw1QySjr1zJfpJM9+1rdDwSPLMOPOjKuiXjoU/pUUeG9RwmhY3BhZFkNngAAAAAAAAAAAAAAAAAAAAAAAAAAAAAAAAAAAAAAAAAAAAAAAAAAAAAAAAAAAAAAAAAAAAAAAAAAAAAAAAAAAAAAAAAAAAAAAAAAAAAAAAAAAAAAAAAAAAAAAAAAAAAAAAAAAAAAAAAAAAAAAAAAAAAAAAAAAAAAAAAAAAAAAAAAAAAAAAAAAAAAAAAAAAAAAAAAAAAAAAAAAAAAAAAAAAAAAAAAAAAAAAAAAAAAAAAAAAAAAAAAAAAAAAAAAAAAAAAAAAAAAAAAAAAAAAAAAAAAAAAAAAAAAAAAAAAAAAAAAAAAAAAAAAAAAAAAAAAAAAAAAAAAAAAAAAAAAAAAAAAAAAAAAAAAAAAAAAAAAAAAAAAAAAAAAAAAAAAAAAAAAAAAAAAAAAAAAAAAAAAAAAAAAAAAAAAAAAAAAAAAAAAAAAAAAAAAAAAAAAAAAAAAAAAAAAAAAAAAAAAAAAAAAAAAAAAAAAAAAAAAAAAAAAAAAAAAAAAAAAAAAAAAAAAAAAAAAAAAAAAAAAAAAAAAAAAAAAAAAAAAAAAAAAAAAAAAAAAAAAAAAAAAAAAAAAAAAAAAAAAAAAAAAAAAAAAAAAAAAAAAAAAAAAAAAAAAAAAAAAAAAAAAAAAAAAAAAAAAAAAAAAAAAAAAAAAAAAAAAAAAAAAAAAAAAAAAAAAAAAAAAAAAAAAAAAAAAAAAAAAAAAAAAAAAAAAAAAAAAAAAAAAAAAAAAAAAAAAAAAAAAAAAAAAAAAAAAAAAAAAAAAAAAAAAAAAAAAAAAAAAAAAAAAAAAAAAAAAAAAAAAAAAAAAAAAAAAAAAAAAAAAAAAAAAAAAAAAAAAAAAAAAAAAAAAAAAAAAAAAAAAAAAAAAAAAAAAAAAAAAAAAAAAAAAAAAAAAAAAAAAAAAAAAAAAAAAAAAAAAAAAAAAAAAAAAAAAAAAAAAAAAAAAAAAAAAAAAAAAAAAAAAAAAAAAAAAAAAAAAAAAAAAAAAAAAAAAAAAAAAAAAAAAAAAAAAAAAAAAAAAAAAAAAAAAAAAAAAAAAAAAAAAAAAAAAAAAAAAAAAAAAAAAAAAAAAAAAAAAAAAAAAAAAAAAAAAAAAAAAAAAAAAAAAAAAAAAAAAAAAAAAAAAAAAAAAAAAAAAAAAAAAAAAAAAAAAAAAAAAAAAAAAAAAAAAAAAAAAAAAAAAAAAAAAAAAAAAAAAAAAAAAAAAAAAAAAAAAAAAAAAAAAAAAAAAAAAAAAAAAAAAAAAAAAAAAAAAAAAAAAAAAAAAAAAAAAAAAAAAAAAAAAAAAAAAAAAAAAAAAAAAAAAAAAAAAAAAAAAAAAAAAAAAAAAAAAAAAAAAAAAAAAAAAAAAAAAAAAAAAAAAAAAAAAAAAAAAAAAAAAAAAAAAAAAAAAAAAAAAAAAAAAAAAAAAAAAAAAAAAAAAAAAAAAAAAAAAAAAAAAAAAAAAAAAAAAAAAAAAAAAAAAAAAAAAAAAAAAAAAAAAAAAAAAAAAAAAAAAAAAAAAAAAAAAAAAAAAAAAAAAAAAAAAAAAAAAAAAAAAAAAAAAAAAAAAAAAAAAAAAAAAAAAAAAAAAAAAAAAAAAAAAAAAAAAAAAAAAAAAAAAAAAAAAAAAAAAAAAAAAAAAAAAAAAAAAAAAAAAAAAAAAAAAAAAAAAAAAAAAAAAAAAAAAAAAAAAAAAAAAAAAAAAAAAAAAAAAAAAAAAAAAAAAAAAAAAAAAAAAAAAAAAAAAAAAAAAAAAAAAAAAAAAAAAAAAAAAAAAAAAAAAAAAAAAAAAAAAAAAAAAAAAAAAAAAAAAAAAAAAAAAAAAAAAAAAAAAAAAAAAAAAAAAAAAAAAAAAAAAAAAAAAAAAAAAAAAAAAAAAAAAAAAAAAAAAAAAAAAAAAAAAAAAAAAAAAAAAAAAAAAAAAAAAAAAAAAAAAAAAAAAAAAAAAAAAAAAAAAAAAAAAAAAAAAAAAAAAAAAAAAAAAAAAAAAAAAAAAAAAAAAAAAAAAAAAAAAAAAAAAAAAAAAAAAAAAAAAAAAAAAAAAAAAAAAAAAAAAAAAAAAAAAAAAAAAAAAAAAAAAAAAAAAAAAAAAAAAAAAAAAAAAAAAAAAAAAAAAAAAAAAAAAAAAAAAAAAAAAAAAAAAAAAAAAAAAAAAAAAAAAAAAAAAAAAAAAAAAAAAAAAAAAAAAAAAAAAAAAAAAAAAAAAAAAAAAAAAAAAAAAAAAAAAAAAAAAAAAAAAAAAAAAAAAAAAAAAAAAAAAAAAAAAAAAAAAAAAAAAAAAAAAAAAAAAAAAAAAAAAAAAAAAAAAAAAAAAAAAAAAAAAAAAAAAAAAAAAAAAAAAAAAAAAAAAAAAAAAAAAAAAAAAAAAAAAAAAAAAAAAAAAAAAAAAAAAAAAAAAAAAAAAAAAAAAAAAAAAAAAAAAAAAAAAAAAAAAAAAAAAAAAAAAAAAAAAAAAAAAAAAAAAAAAAAAAAAAAAAAAAAAAAAAAAAAAAAAAAAAAAAAAAAAAAAAAAAAAAAAAAAAAAAAAAAAAAAAAAAAAAAAAAAAAAAAAAAAAAAAAAAAAAAAAAAAAAAAAAAAAAAAAAAAAAAAAAAAAAAAAAAAAAAAAAAAAAAAAAAAAAAAAAAAAAAAAAAAAAAAAAAAAAAAAAAAAAAAAAAAAAAAAAAAAAAAAAAAAAAAAAAAAAAAAAAAAAAAAAAAAAAAAAAAAAAAAAAAAAAAAAAAAAAAAAAAAAAAAAAAAAAAAAAAAAAAAAAAAAAAAAAAAAAAAAAAAAAAAAAAAAAAAAAAAAAAAAAAAAAAAAAAAAAAAAAAAAAAAAAAAAAAAAAAAAAAAAAAAAAAAAAAAAAAAAAAAAAAAAAAAAAAAAAAAAAAAAAAAAAAAAAAAAAAAAAAAAAAAAAAAAAAAAAAAAAAAAAAAAAAAAAAAAAAAAAAAAAAAAAAAAAAAAAAAAAAAAAAAAAAAAAAAAAAAAAAAAAAAAAAAAAAAAAAAAAAAAAAAAAAAAAAAAAAAAAAAAAAAAAAAAAAAAAAAAAAAAAAAAAAAAAAAAAAAAAAAAAAAAAAAAAAAAAAAAAAAAAAAAAAAAAAAAAAAAAAAAAAAAAAAAAAAAAAAAAAAAAAAAAAAAAAAAAAAAAAAAAAAAAAAAAAAAAAAAAAAAAAAAAAAAAAAAAAAAAAAAAAAAAAAAAAAAAAAAAAAAAAAAAAAAAAAAAAAAAAAAAAAAAAAAAAAAAAAAAAAAAAAAAAAAAAAAAAAAAAAAAAAAAAAAAAAAAAAAAAAAAAAAAAAAAAAAAAAAAAAAAAAAAAAAAAAAAAAAAAAAAAAAAAAAAAAAAAAAAAAAAAAAAAAAAAAAAAAAAAAAAAAAAAAAAAAAAAAAAAAAAAAAAAAAAAAAAAAAAAAAAAAAAAAAAAAAAAAAAAAAAAAAAAAAAAAAAAAAAAAAAAAAAAAAAAAAAAAAAAAAAAAAAAAAAAAAAAAAAAAAAAAAAAAAAAAAAAAAAAAAAAAAAAAAAAAAAAAAAAAAAAAAAAAAAAAAAAAAAAAAAAAAAAAAAAAAAAAAAAAAAAAAAAAAAAAAAAAAAAAAAAAAAAAAAAAAAAAAAAAAAAAAAAAAAAAAAAAAAAAAAAAAAAAAAAAAAAAAAAAAAAAAAAAAAAAAAAAAAAAAAAAAAAAAAAAAAAAAAAAAAAAAAAAAAAAAAAAAAAAAAAAAAAAAAAAAAAAAAAAAAAAAAAAAAAAAAAAAAAAAAAAAAAAAAAAAAAAAAAAAAAAAAAAAAAAAAAAAAAAAAAAAAAAAAAAAAAAAAAAAAAAAAAAAAAAAAAAAAAAAAAAAAAAAAAAAAAAAAAAAAAAAAAAAAAAAAAAAAAAAAAAAAAAAAAAAAAAAAAAAAAAAAAAAAAAAAAAAAAAAAAAAAAAAAAAAAAAAAAAAAAAAAAAAAAAAAAAAAAAAAAAAAAAAAAAAAAAAAAAAAAAAAAAAAAAAAAAAAAAAAAAAAAAAAAAAAAAAAAAAAAAAAAAAAAAAAAAAAAAAAAAAAAAAAAAAAAAAAAAAAAAAAAAAAAAAAAAAAAAAAAAAAAAAAAAAAAAAAAAAAAAAAAAAAAAAAAAAAAAAAAAAAAAAAAAAAAAAAAAAAAAAAAAAAAAAAAAAAAAAAAAAAAAAAAAAAAAAAAAAAAAAAAAAAAAAAAAAAAAAAAAAAAAAAAAAAAAAAAAAAAAAAAAAAAAAAAAAAAAAAAAAAAAAAAAAAAAAAAAAAAAAAAAAAAAAAAAAAAAAAAAAAAAAAAAAAAAAAAAAAAAAAAAAAAAAAAAAAAAAAAAAAAAAAAAAAAAAAAAAAAAAAAAAAAAAAAAAAAAAAAAAAAAAAAAAAAAAAAAAAAAAAAAAAAAAAAAAAAAAAAAAAAAAAAAAAAAAAAAAAAAAAAAAAAAAAAAAAAAAAAAAAAAAAAAAAAAAAAAAAAAAAAAAAAAAAAAAAAAAAAAAAAAAAAAAAAAAAAAAAAAAAAAAAAAAAAAAAAAAAAAAAAAAAAAAAAAAAAAAAAAAAAAAAAAAAAAAAAAAAAAAAAAAAAAAAAAAAAAAAAAAAAAAAAAAAAAAAAAAAAAAAAAAAAAAAAAAAAAAAAAAAAAAAAAAAAAAAAAAAAAAAAAAAAAAAAAAAAAAAAAAAAAAAAAAAAAAAAAAAAAAAAAAAAAAPZYQKqq9fAFvcCLSGhoD2LRWr768/JCfO63WtWJ5u/5zOvGZY6QlpzzVYOgQLLx+FVk5RxtSHSAayB3qYE/xxNgAdo=</c2pa:manifest></metadata><defs><filter id="wash" x="-10%" y="-10%" width="120%" height="120%"><feTurbulence type="fractalNoise" baseFrequency="0.015 0.05" numOctaves="3" seed="8" result="n"></feTurbulence><feDisplacementMap in="SourceGraphic" in2="n" scale="14"></feDisplacementMap></filter></defs><g class="w" filter="url(#wash)" style="animation-delay:0.19s"><path d="M40 180.0L44 150.8L48 130.3L52 122.2L56 122.9L60 125.8L64 125.8L68 122.8L72 120.2L76 120.8L80 124.0L84 126.3L88 125.0L92 122.1L96 123.6L100 135.8L104 159.9L108 190.2L112 217.3L116 233.7L120 238.3L124 236.0L128 233.8L132 234.9L136 238.3L140 240.0L144 238.3L148 234.9L152 233.8L156 236.0L160 238.3L164 233.7L168 217.3L172 190.2L176 159.9L180 135.8L184 123.6L188 122.1L192 125.0L196 126.3L200 124.0L204 120.8L208 120.2L212 122.8L216 125.8L220 125.8L224 122.9L228 122.2L232 130.3L236 150.8L240 180.0L244 209.2L248 229.7L252 237.8L256 237.1L260 234.2L264 234.2L268 237.2L272 239.8L276 239.2L280 236.0L284 233.7L288 235.0L292 237.9L296 236.4L300 224.2L304 200.1L308 169.8L312 142.7L316 126.3L320 121.7L324 124.0L328 126.2L332 125.1L336 121.7L340 120.0L344 121.7L348 125.1L352 126.2L356 124.0L360 121.7L364 126.3L368 142.7L372 169.8L376 200.1L380 224.2L384 236.4L388 237.9L392 235.0L396 233.7L400 236.0L404 239.2L408 239.8L412 237.2L416 234.2L420 234.2L424 237.1L428 237.8L432 229.7L436 209.2L440 180.0L440 180L40 180Z" fill="#C6EBC5"></path></g><g fill="none" stroke="#111111" stroke-linecap="round"><path class="d" pathLength="1" d="M40.0 180.0L441.1 180.0" stroke-width="0.6" opacity="0.6" style="animation-delay:0.05s;--t:0.65s"></path><path class="d" pathLength="1" d="M40 180.0L44 166.9L48 154.2L52 142.5L56 132.1L60 123.4L64 116.7L68 112.2L72 110.1L76 110.6L80 113.4L84 118.7L88 126.1L92 135.4L96 146.3L100 158.4L104 171.2L108 184.4L112 197.4L116 209.8L120 221.1L124 231.0L128 239.1L132 245.1L136 248.8L140 250.0L144 248.8L148 245.1L152 239.1L156 231.0L160 221.1L164 209.8L168 197.4L172 184.4L176 171.2L180 158.4L184 146.3L188 135.4L192 126.1L196 118.7L200 113.4L204 110.6L208 110.1L212 112.2L216 116.7L220 123.4L224 132.1L228 142.5L232 154.2L236 166.9L240 180.0L244 193.1L248 205.8L252 217.5L256 227.9L260 236.6L264 243.3L268 247.8L272 249.9L276 249.4L280 246.6L284 241.3L288 233.9L292 224.6L296 213.7L300 201.6L304 188.8L308 175.6L312 162.6L316 150.2L320 138.9L324 129.0L328 120.9L332 114.9L336 111.2L340 110.0L344 111.2L348 114.9L352 120.9L356 129.0L360 138.9L364 150.2L368 162.6L372 175.6L376 188.8L380 201.6L384 213.7L388 224.6L392 233.9L396 241.3L400 246.6L404 249.4L408 249.9L412 247.8L416 243.3L420 236.6L424 227.9L428 217.5L432 205.8L436 193.1L440 180.0" stroke-width="0.8" opacity="0.6" style="animation-delay:0.08s;--t:0.83s"></path><path class="d" pathLength="1" d="M40 180.0L44 150.8L48 130.3L52 122.2L56 122.9L60 125.8L64 125.8L68 122.8L72 120.2L76 120.8L80 124.0L84 126.3L88 125.0L92 122.1L96 123.6L100 135.8L104 159.9L108 190.2L112 217.3L116 233.7L120 238.3L124 236.0L128 233.8L132 234.9L136 238.3L140 240.0L144 238.3L148 234.9L152 233.8L156 236.0L160 238.3L164 233.7L168 217.3L172 190.2L176 159.9L180 135.8L184 123.6L188 122.1L192 125.0L196 126.3L200 124.0L204 120.8L208 120.2L212 122.8L216 125.8L220 125.8L224 122.9L228 122.2L232 130.3L236 150.8L240 180.0L244 209.2L248 229.7L252 237.8L256 237.1L260 234.2L264 234.2L268 237.2L272 239.8L276 239.2L280 236.0L284 233.7L288 235.0L292 237.9L296 236.4L300 224.2L304 200.1L308 169.8L312 142.7L316 126.3L320 121.7L324 124.0L328 126.2L332 125.1L336 121.7L340 120.0L344 121.7L348 125.1L352 126.2L356 124.0L360 121.7L364 126.3L368 142.7L372 169.8L376 200.1L380 224.2L384 236.4L388 237.9L392 235.0L396 233.7L400 236.0L404 239.2L408 239.8L412 237.2L416 234.2L420 234.2L424 237.1L428 237.8L432 229.7L436 209.2L440 180.0" stroke-width="1.6" style="animation-delay:0.11s;--t:0.72s"></path><path class="d" pathLength="1" d="M169.9 270.0L310.3 270.0" stroke-width="1.3" style="animation-delay:0.14s;--t:0.78s"></path><path class="d" pathLength="1" d="M310.0 269.8L310.0 331.7" stroke-width="1.3" style="animation-delay:0.17s;--t:0.82s"></path><path class="d" pathLength="1" d="M310.8 330.0L167.6 330.0" stroke-width="1.3" style="animation-delay:0.20s;--t:0.82s"></path><path class="d" pathLength="1" d="M170.0 331.7L170.0 267.4" stroke-width="1.3" style="animation-delay:0.23s;--t:0.89s"></path><path class="d" pathLength="1" d="M183.9 282.0L256.5 282.0" stroke-width="0.8" style="animation-delay:0.26s;--t:0.78s"></path><path class="d" pathLength="1" d="M254.0 281.8L254.0 304.7" stroke-width="0.8" style="animation-delay:0.29s;--t:0.56s"></path><path class="d" pathLength="1" d="M254.1 304.0L181.6 304.0" stroke-width="0.8" style="animation-delay:0.32s;--t:1.05s"></path><path class="d" pathLength="1" d="M184.0 304.2L184.0 279.8" stroke-width="0.8" style="animation-delay:0.35s;--t:0.84s"></path><path class="d" pathLength="1" d="M270.0 300.0a12 12 0 1 0 24.0 0a12 12 0 1 0 -24.0 0" stroke-width="0.9" style="animation-delay:0.38s;--t:0.89s"></path><path class="d" pathLength="1" d="M281.9 300.1L290.6 291.4" stroke-width="0.8" style="animation-delay:0.41s;--t:0.90s"></path></g><g class="dt" style="animation-delay:1.85s"></g></svg>