<svg xmlns="http://www.w3.org/2000/svg" viewBox="0 0 1600 520" width="1600" height="520"><defs><filter id="wob" x="-2%" y="-2%" width="104%" height="104%"><feTurbulence type="fractalNoise" baseFrequency="0.035" numOctaves="2" seed="3"></feTurbulence><feDisplacementMap in="SourceGraphic" scale="2.2"></feDisplacementMap></filter><filter id="wash" x="-10%" y="-10%" width="120%" height="120%"><feTurbulence type="fractalNoise" baseFrequency="0.015 0.05" numOctaves="3" seed="8" result="n"></feTurbulence><feDisplacementMap in="SourceGraphic" in2="n" scale="16"></feDisplacementMap></filter></defs><g class="w" filter="url(#wash)" style="animation-delay:0.32s"><rect x="660.0" y="175.0" width="280.0" height="160.0" fill="#C6EBC5" opacity="1"></rect></g><g fill="none" stroke="#111111" stroke-linecap="round" filter="url(#wob)"><path class="d" pathLength="1" d="M672.0 186.0Q800.0 184.3 931.6 186.0" stroke-width="1.6" style="animation-delay:0.10s;--t:0.66s"></path><path class="d" pathLength="1" d="M928.0 185.5Q927.0 255.0 928.0 327.9" stroke-width="1.6" style="animation-delay:0.13s;--t:0.66s"></path><path class="d" pathLength="1" d="M928.1 324.0Q800.0 326.1 668.2 324.0" stroke-width="1.6" style="animation-delay:0.16s;--t:0.56s"></path><path class="d" pathLength="1" d="M672.0 324.9Q671.4 255.0 672.0 181.8" stroke-width="1.6" style="animation-delay:0.19s;--t:0.79s"></path><path class="d" pathLength="1" d="M38.9 470.0Q800.0 469.6 1563.5 470.0" stroke-width="0.5" opacity="0.5" style="animation-delay:0.22s;--t:0.74s"></path><path class="d" pathLength="1" d="M37.6 112.0Q170.0 111.3 303.5 112.0" stroke-width="0.8" style="animation-delay:0.25s;--t:0.93s"></path><path class="d" pathLength="1" d="M320 90C480 90 520 255 660 255" stroke-width="1" style="animation-delay:0.28s;--t:0.89s"></path><path class="d" pathLength="1" d="M38.4 222.0Q170.0 224.3 303.7 222.0" stroke-width="0.8" style="animation-delay:0.31s;--t:1.04s"></path><path class="d" pathLength="1" d="M320 200C480 200 520 255 660 255" stroke-width="1" style="animation-delay:0.34s;--t:0.67s"></path><path class="d" pathLength="1" d="M37.9 332.0Q170.0 333.2 304.2 332.0" stroke-width="0.8" style="animation-delay:0.37s;--t:1.02s"></path><path class="d" pathLength="1" d="M320 310C480 310 520 255 660 255" stroke-width="1" style="animation-delay:0.40s;--t:0.99s"></path><path class="d" pathLength="1" d="M39.2 442.0Q170.0 442.4 304.4 442.0" stroke-width="0.8" style="animation-delay:0.43s;--t:1.01s"></path><path class="d" pathLength="1" d="M320 420C480 420 520 255 660 255" stroke-width="1" style="animation-delay:0.46s;--t:1.05s"></path><path class="d" pathLength="1" d="M1299.3 112.0Q1430.0 112.5 1562.1 112.0" stroke-width="0.8" style="animation-delay:0.49s;--t:0.51s"></path><path class="d" pathLength="1" d="M940 255C1080 255 1120 90 1280 90" stroke-width="1" style="animation-delay:0.52s;--t:0.83s"></path><path class="d" pathLength="1" d="M1300.0 222.0Q1430.0 219.6 1563.3 222.0" stroke-width="0.8" style="animation-delay:0.55s;--t:0.71s"></path><path class="d" pathLength="1" d="M940 255C1080 255 1120 200 1280 200" stroke-width="1" style="animation-delay:0.58s;--t:0.96s"></path><path class="d" pathLength="1" d="M1297.7 332.0Q1430.0 332.8 1564.6 332.0" stroke-width="0.8" style="animation-delay:0.61s;--t:1.08s"></path><path class="d" pathLength="1" d="M940 255C1080 255 1120 310 1280 310" stroke-width="1" style="animation-delay:0.64s;--t:0.83s"></path><path class="d" pathLength="1" d="M1299.7 442.0Q1430.0 443.0 1562.4 442.0" stroke-width="0.8" style="animation-delay:0.67s;--t:0.57s"></path><path class="d" pathLength="1" d="M940 255C1080 255 1120 420 1280 420" stroke-width="1" style="animation-delay:0.70s;--t:0.77s"></path></g><g class="dt" style="animation-delay:1.90s"><circle cx="320.0" cy="90.0" r="4.5" fill="#111111"></circle><circle cx="320.0" cy="200.0" r="4.5" fill="#111111"></circle><circle cx="320.0" cy="310.0" r="4.5" fill="#111111"></circle><circle cx="320.0" cy="420.0" r="4.5" fill="#111111"></circle><circle cx="1280.0" cy="90.0" r="4.5" fill="#111111"></circle><circle cx="1280.0" cy="200.0" r="4.5" fill="#111111"></circle><circle cx="1280.0" cy="310.0" r="4.5" fill="#111111"></circle><circle cx="1280.0" cy="420.0" r="4.5" fill="#111111"></circle></g><g class="dt" style="animation-delay:1.6s"><text x="40" y="98" font-family="JetBrains Mono, ui-monospace, Menlo, Consolas, monospace" font-size="26" fill="#111111">.dss</text><text x="300" y="98" font-family="JetBrains Mono, ui-monospace, Menlo, Consolas, monospace" font-size="18" fill="#111111" text-anchor="end">OpenDSS</text><text x="40" y="208" font-family="JetBrains Mono, ui-monospace, Menlo, Consolas, monospace" font-size="26" fill="#111111">.m</text><text x="300" y="208" font-family="JetBrains Mono, ui-monospace, Menlo, Consolas, monospace" font-size="18" fill="#111111" text-anchor="end">MATPOWER</text><text x="40" y="318" font-family="JetBrains Mono, ui-monospace, Menlo, Consolas, monospace" font-size="26" fill="#111111">.raw</text><text x="300" y="318" font-family="JetBrains Mono, ui-monospace, Menlo, Consolas, monospace" font-size="18" fill="#111111" text-anchor="end">PSS®E</text><text x="40" y="428" font-family="JetBrains Mono, ui-monospace, Menlo, Consolas, monospace" font-size="26" fill="#111111">sheet</text><text x="300" y="428" font-family="JetBrains Mono, ui-monospace, Menlo, Consolas, monospace" font-size="18" fill="#111111" text-anchor="end">spreadsheet</text><text x="1560" y="98" font-family="JetBrains Mono, ui-monospace, Menlo, Consolas, monospace" font-size="24" fill="#111111" text-anchor="end">OpenDSS</text><text x="1560" y="208" font-family="JetBrains Mono, ui-monospace, Menlo, Consolas, monospace" font-size="24" fill="#111111" text-anchor="end">PyPSA</text><text x="1560" y="318" font-family="JetBrains Mono, ui-monospace, Menlo, Consolas, monospace" font-size="24" fill="#111111" text-anchor="end">pandapower</text><text x="1560" y="428" font-family="JetBrains Mono, ui-monospace, Menlo, Consolas, monospace" font-size="24" fill="#111111" text-anchor="end">HiGHS</text><text x="800" y="262" font-family="Archivo, Helvetica Neue, Helvetica, Arial, sans-serif" font-size="44" font-weight="800" letter-spacing="-2" fill="#111111" text-anchor="middle">Feeder IR</text><text x="800" y="302" font-family="JetBrains Mono, ui-monospace, Menlo, Consolas, monospace" font-size="14" fill="#111111" text-anchor="middle">value · unit · source · ref</text><text x="40" y="505" font-family="JetBrains Mono, ui-monospace, Menlo, Consolas, monospace" font-size="15" fill="#111111" letter-spacing="1">DETERMINISTIC IMPORTERS</text><text x="1560" y="505" font-family="JetBrains Mono, ui-monospace, Menlo, Consolas, monospace" font-size="15" fill="#111111" text-anchor="end" letter-spacing="1">VALIDATED ENGINES</text></g><circle r="6" fill="#111111"></circle><circle r="6" fill="#111111"></circle><circle r="6" fill="#111111"></circle><circle r="6" fill="#111111"></circle><circle r="6" fill="#111111"></circle><circle r="6" fill="#111111"></circle><circle r="6" fill="#111111"></circle><circle r="6" fill="#111111"></circle></svg>
